# xmcd
#
# Track frame offsets:
#	150
#	14194
#	31229
#	46392
#	68474
#	97642
#	113723
#	138879
#	159220
#	173633
#	197637
#	217863
#
# Disc length: 3175 seconds
#
# Revision: 0
# Processed by: cddbd v1.5.2PL0 Copyright (c) Steve Scherf et al.
# Submitted via: EZCDAudioConverter 5.0.0.1
#
DISCID=8c0c650c
DTITLE=Wentus Blues Band - Lucky strike mama
DYEAR=2016
DGENRE=
TTITLE0=Baa Baa
TTITLE1=Lucky strike mama
TTITLE2=True Love
TTITLE3=5 Nights at Freddy´s
TTITLE4=Saints and Sinners
TTITLE5=Sparrows and Swallows
TTITLE6=Star In The Night
TTITLE7=Thin Red Line
TTITLE8=Johari Window
TTITLE9=Saturday All Time Man
TTITLE10=Mean Green Machine
TTITLE11=Abigail
EXTD=
EXTT0=
EXTT1=
EXTT2=
EXTT3=
EXTT4=
EXTT5=
EXTT6=
EXTT7=
EXTT8=
EXTT9=
EXTT10=
EXTT11=
PLAYORDER=
